<svg width="105" height="14" viewBox="0 0 105 14" fill="none" xmlns="http://www.w3.org/2000/svg">
<path d="M0 13.8071V0.186223H5.51741C6.5781 0.186223 7.48173 0.383531 8.22831 0.778148C8.97489 1.16833 9.54393 1.71148 9.93543 2.4076C10.3315 3.09929 10.5295 3.89739 10.5295 4.8019C10.5295 5.70641 10.3292 6.50451 9.9286 7.1962C9.528 7.88789 8.94758 8.4266 8.18734 8.81235C7.43166 9.1981 6.51664 9.39097 5.44229 9.39097H1.92563V7.08314H4.9643C5.53334 7.08314 6.00223 6.98781 6.37097 6.79715C6.74426 6.60206 7.02195 6.33381 7.20404 5.9924C7.39069 5.64656 7.48401 5.24972 7.48401 4.8019C7.48401 4.34964 7.39069 3.95503 7.20404 3.61805C7.02195 3.27664 6.74426 3.01283 6.37097 2.8266C5.99768 2.63595 5.52424 2.54062 4.95064 2.54062H2.95673V13.8071H0Z" fill="#F3F3F3"/>
<path d="M11.6306 0.186223H14.9424L18.1313 6.05226H18.2679L21.4568 0.186223H24.7686L19.6677 8.99192V13.8071H16.7315V8.99192L11.6306 0.186223Z" fill="#F3F3F3"/>
<path d="M26.3835 13.8071V0.186223H31.9009C32.9571 0.186223 33.8584 0.37023 34.605 0.738242C35.3561 1.10182 35.9275 1.61837 36.319 2.28789C36.715 2.95297 36.913 3.73555 36.913 4.63563C36.913 5.54014 36.7127 6.31829 36.3121 6.97007C35.9115 7.61742 35.3311 8.11401 34.5709 8.45986C33.8152 8.8057 32.9002 8.97862 31.8258 8.97862H28.1316V6.66413H31.3478C31.9123 6.66413 32.3812 6.58876 32.7545 6.438C33.1278 6.28725 33.4055 6.06112 33.5876 5.75962C33.7742 5.45812 33.8675 5.08345 33.8675 4.63563C33.8675 4.18337 33.7742 3.80206 33.5876 3.49169C33.4055 3.18131 33.1255 2.94632 32.7477 2.7867C32.3744 2.62264 31.9032 2.54062 31.3342 2.54062H29.3403V13.8071H26.3835ZM33.9358 7.60855L37.4115 13.8071H34.1475L30.7469 7.60855H33.9358Z" fill="#F3F3F3"/>
<path d="M41.413 13.8071H38.2446L43.0723 0.186223H46.8826L51.7035 13.8071H48.5351L45.0321 3.29881H44.9228L41.413 13.8071ZM41.215 8.45321H48.699V10.7012H41.215V8.45321Z" fill="#F3F3F3"/>
<path d="M53.3867 0.186223H57.0331L60.8844 9.33777H61.0483L64.8995 0.186223H68.5459V13.8071H65.678V4.94157H65.5619L61.9428 13.7406H59.9899L56.3708 4.90831H56.2547V13.8071H53.3867V0.186223Z" fill="#F3F3F3"/>
<path d="M73.9387 3.33872V13.8071H70.982V3.33872H73.9387Z" fill="#F3F3F3"/>
<path d="M81.3288 13.8071H76.3714V0.186223H81.3698C82.7765 0.186223 83.9874 0.458908 85.0026 1.00428C86.0177 1.54521 86.7985 2.32336 87.3447 3.33872C87.8956 4.35408 88.171 5.56896 88.171 6.98337C88.171 8.40222 87.8956 9.62154 87.3447 10.6413C86.7985 11.6611 86.0132 12.4437 84.9889 12.9891C83.9692 13.5344 82.7492 13.8071 81.3288 13.8071ZM79.3281 11.3397H81.2059C82.08 11.3397 82.8152 11.1889 83.4115 10.8874C84.0124 10.5815 84.4631 10.1093 84.7636 9.47078C85.0686 8.82787 85.2211 7.99873 85.2211 6.98337C85.2211 5.97688 85.0686 5.15439 84.7636 4.51591C84.4631 3.87743 84.0147 3.40744 83.4184 3.10594C82.822 2.80443 82.0868 2.65368 81.2128 2.65368H79.3281V11.3397Z" fill="#F3F3F3"/>
<path d="M97.9476 4.10356C97.893 3.56706 97.6586 3.15028 97.2443 2.85321C96.8301 2.55614 96.2678 2.4076 95.5577 2.4076C95.0751 2.4076 94.6677 2.47411 94.3354 2.60713C94.0031 2.73571 93.7481 2.91528 93.5706 3.14584C93.3976 3.37641 93.3111 3.63801 93.3111 3.93064C93.302 4.17451 93.3544 4.38733 93.4682 4.56912C93.5865 4.75091 93.7481 4.90831 93.953 5.04133C94.1578 5.16991 94.3946 5.28298 94.6631 5.38052C94.9317 5.47363 95.2185 5.55344 95.5235 5.61995L96.78 5.91259C97.39 6.04561 97.9499 6.22296 98.4598 6.44466C98.9696 6.66635 99.4112 6.93903 99.7845 7.26271C100.158 7.58638 100.447 7.9677 100.652 8.40665C100.861 8.84561 100.968 9.34885 100.973 9.91639C100.968 10.75 100.75 11.4727 100.317 12.0846C99.8892 12.692 99.2701 13.1642 98.4598 13.5012C97.654 13.8337 96.6821 14 95.544 14C94.415 14 93.4317 13.8315 92.5941 13.4945C91.761 13.1576 91.1101 12.6587 90.6412 11.9981C90.1768 11.333 89.9333 10.5105 89.9105 9.53064H92.7717C92.8035 9.98733 92.9378 10.3686 93.1745 10.6746C93.4158 10.9761 93.7367 11.2044 94.1374 11.3596C94.5425 11.5104 95 11.5857 95.5099 11.5857C96.0106 11.5857 96.4454 11.5148 96.8141 11.3729C97.1874 11.231 97.4765 11.0337 97.6813 10.781C97.8862 10.5283 97.9886 10.2378 97.9886 9.90974C97.9886 9.6038 97.8953 9.34663 97.7086 9.13824C97.5266 8.92985 97.258 8.75249 96.9029 8.60618C96.5524 8.45986 96.1222 8.32684 95.6123 8.20713L94.0896 7.83468C92.9105 7.55534 91.9796 7.11861 91.2967 6.52447C90.6139 5.93032 90.2747 5.13001 90.2793 4.12351C90.2747 3.29881 90.5001 2.57831 90.9553 1.962C91.4151 1.34569 92.0456 0.864608 92.8468 0.518765C93.648 0.172922 94.5584 0 95.5782 0C96.6161 0 97.522 0.172922 98.2959 0.518765C99.0743 0.864608 99.6798 1.34569 100.112 1.962C100.545 2.57831 100.768 3.29216 100.781 4.10356H97.9476Z" fill="#F3F3F3"/>
<path d="M73.9387 0.186223V2.565H70.982V0.186223H73.9387Z" fill="#F19A21"/>
<path d="M105 11.6212V14H102.043V11.6212H105Z" fill="#F19A21"/>
</svg>
